<svg version="1.1" xmlns="http://www.w3.org/2000/svg" xmlns:xlink="http://www.w3.org/1999/xlink" width="24" height="24" viewBox="0,0,256,256"><g fill="#ffffff" fill-rule="nonzero" stroke="none" stroke-width="1" stroke-linecap="butt" stroke-linejoin="miter" stroke-miterlimit="10" stroke-dasharray="" stroke-dashoffset="0" font-family="none" font-weight="none" font-size="none" text-anchor="none" style="mix-blend-mode: normal"><g transform="translate(-0.064,-0.24533) scale(10.66667,10.66667)"><path d="M11.999,7.377c-2.55376,0 -4.624,2.07024 -4.624,4.624c0,2.55376 2.07024,4.624 4.624,4.624c2.55376,0 4.624,-2.07024 4.624,-4.624c0,-2.55376 -2.07024,-4.624 -4.624,-4.624zM11.999,15.004c-1.65906,0 -3.004,-1.34494 -3.004,-3.004c0,-1.65906 1.34494,-3.004 3.004,-3.004c1.65906,0 3.004,1.34494 3.004,3.004c0,1.65906 -1.34494,3.004 -3.004,3.004z"></path><circle cx="16.806" cy="7.207" r="1.078"></circle><path d="M20.533,6.111c-0.4681,-1.20882 -1.42401,-2.16436 -2.633,-2.632c-0.69966,-0.26264 -1.43882,-0.40466 -2.186,-0.42c-0.963,-0.042 -1.268,-0.054 -3.71,-0.054c-2.442,0 -2.755,0 -3.71,0.054c-0.74661,0.01456 -1.48524,0.1566 -2.184,0.42c-1.20934,0.46711 -2.16543,1.42284 -2.633,2.632c-0.2627,0.69961 -0.40439,1.43884 -0.419,2.186c-0.043,0.962 -0.056,1.267 -0.056,3.71c0,2.442 0,2.753 0.056,3.71c0.015,0.748 0.156,1.486 0.419,2.187c0.46886,1.20867 1.42497,2.16406 2.634,2.632c0.69743,0.2732 1.43637,0.42538 2.185,0.45c0.963,0.042 1.268,0.055 3.71,0.055c2.442,0 2.755,0 3.71,-0.055c0.7471,-0.01519 1.48623,-0.15687 2.186,-0.419c1.20864,-0.46872 2.16428,-1.42436 2.633,-2.633c0.263,-0.7 0.404,-1.438 0.419,-2.186c0.043,-0.962 0.056,-1.267 0.056,-3.71c0,-2.443 0,-2.753 -0.056,-3.71c-0.01164,-0.75773 -0.15407,-1.50775 -0.421,-2.217zM19.315,15.643c-0.00645,0.5763 -0.11164,1.14724 -0.311,1.688c-0.30367,0.78635 -0.92547,1.40779 -1.712,1.711c-0.53477,0.19845 -1.09964,0.30364 -1.67,0.311c-0.95,0.044 -1.218,0.055 -3.654,0.055c-2.438,0 -2.687,0 -3.655,-0.055c-0.57007,-0.00698 -1.13467,-0.11218 -1.669,-0.311c-0.78932,-0.30135 -1.41397,-0.92309 -1.719,-1.711c-0.19655,-0.53495 -0.30169,-1.09916 -0.311,-1.669c-0.043,-0.95 -0.053,-1.218 -0.053,-3.654c0,-2.437 0,-2.686 0.053,-3.655c0.00646,-0.57598 0.11166,-1.14658 0.311,-1.687c0.305,-0.789 0.93,-1.41 1.719,-1.712c0.53459,-0.19786 1.09903,-0.30304 1.669,-0.311c0.951,-0.043 1.218,-0.055 3.655,-0.055c2.437,0 2.687,0 3.654,0.055c0.57041,0.00686 1.13536,0.11207 1.67,0.311c0.78645,0.30387 1.40813,0.92555 1.712,1.712c0.19655,0.53495 0.30169,1.09916 0.311,1.669c0.043,0.951 0.054,1.218 0.054,3.655c0,2.436 0,2.698 -0.043,3.654h-0.011z"></path></g></g></svg>