<svg version="1.1" xmlns="http://www.w3.org/2000/svg" xmlns:xlink="http://www.w3.org/1999/xlink" width="512.000000pt" height="512.000000pt" viewBox="0,0,256,256"><g fill="#ffffff" fill-rule="nonzero" stroke="none" stroke-width="1" stroke-linecap="butt" stroke-linejoin="miter" stroke-miterlimit="10" stroke-dasharray="" stroke-dashoffset="0" font-family="none" font-weight="none" font-size="none" text-anchor="none" style="mix-blend-mode: normal"><g transform="translate(0.04066,0.01285) scale(0.5,0.5)"><g transform="translate(0,512) scale(0.1,-0.1)"><path d="M4980,3893c-17,-3 -405,-384 -1223,-1201l-1197,-1197l-1188,1187c-653,652 -1197,1191 -1209,1197c-88,45 -191,-47 -154,-137c7,-15 571,-586 1254,-1269c918,-917 1249,-1242 1269,-1245c16,-3 40,-3 55,-1c21,4 352,329 1275,1252c1098,1097 1248,1250 1253,1283c15,80 -52,145 -135,131z"></path></g></g></g></svg>